<?xml version="1.0" encoding="UTF-8"?>
<svg id="Capa_2" data-name="Capa 2" xmlns="http://www.w3.org/2000/svg" viewBox="0 0 41.14 10.31">
  <defs>
    <style>
      .cls-1 {
        fill: #ffd813;
      }
    </style>
  </defs>
  <g id="Capa_1-2" data-name="Capa 1">
    <g>
      <path class="cls-1" d="m10.04,3.51h-2.75c-.36,0-.68-.24-.8-.59l-.88-2.64C5.55.1,5.39,0,5.23,0c-.17,0-.33.1-.38.28l-.88,2.64c-.12.36-.44.59-.8.59H.42c-.14,0-.28.07-.35.19-.12.19-.07.44.09.57l2.22,1.79c.28.23.4.62.29.98l-.81,2.71c-.04.14-.02.29.06.4.08.11.2.16.31.16.08,0,.15-.02.22-.07l2.31-1.61c.28-.2.65-.2.93,0l2.31,1.61c.07.05.14.07.22.07.12,0,.23-.05.31-.16.09-.11.1-.27.06-.4l-.8-2.71c-.11-.36,0-.75.29-.98l2.21-1.79c.16-.13.21-.38.09-.57-.07-.12-.21-.19-.35-.19"/>
      <path class="cls-1" d="m25.37,3.51h-2.75c-.36,0-.68-.24-.8-.59l-.88-2.64c-.06-.18-.22-.28-.38-.28-.17,0-.33.1-.38.28l-.88,2.64c-.12.36-.44.59-.8.59h-2.75c-.14,0-.28.07-.35.19-.12.19-.07.44.09.57l2.22,1.79c.28.23.4.62.29.98l-.81,2.71c-.04.14-.02.29.06.4.08.11.2.16.31.16.08,0,.15-.02.22-.07l2.31-1.61c.28-.2.65-.2.93,0l2.31,1.61c.07.05.14.07.22.07.12,0,.23-.05.31-.16.09-.11.1-.27.06-.4l-.8-2.71c-.11-.36,0-.75.29-.98l2.21-1.79c.16-.13.21-.38.09-.57-.07-.12-.21-.19-.35-.19"/>
      <path class="cls-1" d="m40.72,3.51h-2.75c-.36,0-.68-.24-.8-.59l-.88-2.64c-.06-.18-.22-.28-.38-.28-.17,0-.33.1-.38.28l-.88,2.64c-.12.36-.44.59-.8.59h-2.75c-.14,0-.28.07-.35.19-.12.19-.07.44.09.57l2.22,1.79c.28.23.4.62.29.98l-.81,2.71c-.04.14-.02.29.06.4.08.11.2.16.31.16.08,0,.15-.02.22-.07l2.31-1.61c.28-.2.65-.2.93,0l2.31,1.61c.07.05.14.07.22.07.12,0,.23-.05.31-.16.09-.11.1-.27.06-.4l-.8-2.71c-.11-.36,0-.75.29-.98l2.21-1.79c.16-.13.21-.38.09-.57-.07-.12-.21-.19-.35-.19"/>
    </g>
  </g>
</svg>