<?xml version="1.0" encoding="UTF-8"?>
<svg id="Capa_2" data-name="Capa 2" xmlns="http://www.w3.org/2000/svg" viewBox="0 0 1498.05 465">
  <defs>
    <style>
      .cls-1 {
        fill: #0a2126;
      }

      .cls-2 {
        fill: #ffd710;
      }
    </style>
  </defs>
  <g id="Capa_1-2" data-name="Capa 1">
    <g>
      <path class="cls-2" d="m1181.83,395.86h-27.95c-3.64,0-6.87-2.42-8.09-6.05l-8.96-26.8c-.6-1.78-2.2-2.88-3.9-2.84-1.7-.03-3.32,1.06-3.9,2.84l-8.96,26.8c-1.21,3.63-4.45,6.05-8.09,6.05h-27.95c-1.41,0-2.8.67-3.57,1.9-1.21,1.95-.74,4.46.91,5.79l22.53,18.21c2.86,2.31,4.06,6.31,2.98,9.96l-8.19,27.54c-.4,1.39-.24,2.96.61,4.11.83,1.08,2.01,1.63,3.19,1.63.78,0,1.55-.22,2.23-.7l23.48-16.38c2.86-1.99,6.57-1.99,9.43,0l23.5,16.38c.68.48,1.44.7,2.22.7,1.18,0,2.36-.55,3.19-1.63.87-1.15,1.03-2.72.61-4.11l-8.17-27.54c-1.08-3.65.1-7.64,2.98-9.96l22.51-18.21c1.65-1.34,2.12-3.84.91-5.79-.76-1.23-2.15-1.9-3.56-1.9"/>
      <path class="cls-2" d="m1337.73,395.86h-27.95c-3.64,0-6.87-2.42-8.09-6.05l-8.96-26.8c-.6-1.78-2.2-2.88-3.9-2.84-1.7-.03-3.32,1.06-3.9,2.84l-8.96,26.8c-1.21,3.63-4.45,6.05-8.09,6.05h-27.95c-1.41,0-2.8.67-3.57,1.9-1.21,1.95-.74,4.46.91,5.79l22.53,18.21c2.86,2.31,4.06,6.31,2.98,9.96l-8.19,27.54c-.4,1.39-.24,2.96.61,4.11.83,1.08,2.01,1.63,3.19,1.63.78,0,1.55-.22,2.23-.7l23.48-16.38c2.86-1.99,6.57-1.99,9.43,0l23.5,16.38c.68.48,1.44.7,2.22.7,1.18,0,2.36-.55,3.19-1.63.87-1.15,1.03-2.72.61-4.11l-8.17-27.54c-1.08-3.65.1-7.64,2.98-9.96l22.51-18.21c1.65-1.34,2.12-3.84.91-5.79-.76-1.23-2.15-1.9-3.56-1.9"/>
      <path class="cls-2" d="m1493.81,395.86h-27.95c-3.64,0-6.87-2.42-8.09-6.05l-8.96-26.8c-.6-1.78-2.2-2.88-3.9-2.84-1.7-.03-3.32,1.06-3.9,2.84l-8.96,26.8c-1.21,3.63-4.45,6.05-8.09,6.05h-27.95c-1.41,0-2.8.67-3.57,1.9-1.21,1.95-.74,4.46.91,5.79l22.53,18.21c2.86,2.31,4.06,6.31,2.98,9.96l-8.19,27.54c-.4,1.39-.24,2.96.61,4.11.83,1.08,2.01,1.63,3.19,1.63.78,0,1.55-.22,2.23-.7l23.48-16.38c2.86-1.99,6.57-1.99,9.43,0l23.5,16.38c.68.48,1.44.7,2.22.7,1.18,0,2.36-.55,3.19-1.63.87-1.15,1.03-2.72.61-4.11l-8.17-27.54c-1.08-3.65.1-7.64,2.98-9.96l22.51-18.21c1.65-1.34,2.12-3.84.91-5.79-.76-1.23-2.15-1.9-3.56-1.9"/>
      <path class="cls-1" d="m194.59,94.95c4.95,5,10.82,8.87,17.61,11.62,4.4,1.78,9.03,2.98,13.89,3.61,3.15,3.54,6.12,6.62,8.91,9.24,3.7,3.46,7.26,6.22,10.68,8.26,3.41,2.04,6.88,3.52,10.39,4.43,3.51.92,7.24,1.38,11.19,1.38,11.35,0,20.44-4.38,27.28-13.15l-10.39-13.15c-4.81,5.3-10.3,7.95-16.45,7.95-2.31,0-4.5-.46-6.57-1.38-2.07-.92-4.21-2.5-6.42-4.74-.42-.43-.86-.91-1.29-1.39.95-.33,1.89-.67,2.81-1.05,6.69-2.75,12.51-6.6,17.46-11.54,4.96-4.94,8.83-10.8,11.62-17.58,2.79-6.78,4.18-14.14,4.18-22.09s-1.4-15.44-4.18-22.17c-2.79-6.73-6.66-12.56-11.62-17.51-4.95-4.94-10.77-8.79-17.46-11.54-6.69-2.75-14.02-4.13-22.01-4.13s-15.2,1.38-21.94,4.13c-6.74,2.75-12.61,6.63-17.61,11.62-5,4.99-8.87,10.85-11.62,17.58-2.74,6.73-4.11,14.07-4.11,22.02s1.37,15.29,4.11,22.02c2.74,6.73,6.59,12.59,11.55,17.58m10.39-53.51c1.59-4.18,3.8-7.8,6.64-10.86,2.84-3.06,6.18-5.4,10.03-7.03,3.85-1.63,8.03-2.45,12.56-2.45s8.68.82,12.48,2.45c3.8,1.63,7.14,3.98,10.03,7.03,2.89,3.06,5.12,6.68,6.71,10.86,1.59,4.18,2.38,8.82,2.38,13.91s-.79,9.61-2.38,13.84c-1.59,4.23-3.83,7.87-6.71,10.93-2.89,3.06-6.23,5.4-10.03,7.03-3.8,1.63-7.96,2.45-12.48,2.45s-8.71-.81-12.56-2.45c-3.85-1.63-7.19-3.97-10.03-7.03-2.84-3.06-5.05-6.7-6.64-10.93-1.59-4.23-2.38-8.84-2.38-13.84s.8-9.73,2.38-13.91"/>
      <path class="cls-1" d="m311.95,106.37c5.05,2.65,10.8,3.98,17.25,3.98,5.96,0,11.47-1.45,16.52-4.36,2.95-1.69,5.46-3.88,7.58-6.53v9.67h21.36V26.87h-22.51v40.67c0,4.99-.77,9.15-2.31,12.46-1.54,3.31-3.66,5.76-6.35,7.34-2.69,1.58-5.77,2.37-9.24,2.37-5.01,0-8.88-1.6-11.62-4.82-2.74-3.21-4.11-8.23-4.11-15.06V26.87h-22.51v46.48c0,8.46,1.39,15.42,4.18,20.87,2.79,5.45,6.71,9.51,11.76,12.15"/>
      <path class="cls-1" d="m402.29,105.66c6.68,3.67,14.45,5.5,23.31,5.5,7.02,0,13.23-1.15,18.62-3.44,5.39-2.29,9.86-5.58,13.42-9.86l-11.98-13.76c-2.6,2.65-5.46,4.64-8.59,5.96-3.13,1.32-6.76,1.99-10.9,1.99-4.62,0-8.64-.89-12.05-2.67-3.42-1.78-6.06-4.38-7.94-7.8-1.02-1.85-1.74-3.87-2.2-6.04h58.7c.09-1.02.19-2.12.29-3.29.1-1.17.15-2.22.15-3.13,0-8.87-1.78-16.49-5.34-22.86-3.56-6.37-8.39-11.26-14.5-14.68-6.11-3.41-12.97-5.12-20.57-5.12s-14.96,1.81-21.21,5.43c-6.26,3.62-11.19,8.62-14.79,14.98-3.61,6.37-5.41,13.68-5.41,21.94s1.83,15.42,5.49,21.79c3.66,6.37,8.83,11.39,15.52,15.06m10.39-58.48c2.93-1.78,6.33-2.67,10.17-2.67s7.22.89,10.1,2.67c2.89,1.78,5.15,4.26,6.78,7.42,1.08,2.09,1.77,4.45,2.14,7.03h-38.16c.37-2.55,1.05-4.89,2.11-6.96,1.63-3.21,3.92-5.71,6.85-7.49"/>
      <path class="cls-1" d="m184.88,263.99c0,13.18-3.53,25.4-10.47,36.34-6.98,10.96-17.56,19.94-31.48,26.71-13.96,6.78-31.92,10.21-53.36,10.21-18.99,0-37.05-3.49-52.23-10.11-12.17-5.29-25.37-16.11-35.01-24-.8-.65-1.57-1.28-2.33-1.9l16.49-38.74c2.19,1.74,4.39,3.6,6.69,5.58,6.93,5.9,14.79,12.6,24.97,17.11,10.56,4.66,26.4,10.86,41.74,10.86,10.62,0,19.33-1.13,25.89-3.37,6.75-2.3,11.81-5.59,15.08-9.79,3.31-4.27,4.99-9.22,4.99-14.73,0-7.07-2.67-12.78-7.92-16.95-4.96-3.93-11.54-7.18-19.55-9.65-7.81-2.41-16.6-4.75-26.11-6.97-9.42-2.17-18.93-4.89-28.3-8.08-9.3-3.18-17.92-7.3-25.61-12.28-7.56-4.9-13.8-11.46-18.53-19.49-4.7-7.97-7.09-18.35-7.09-30.86,0-13.41,3.47-25.83,10.34-36.88,6.85-11.07,17.38-20.04,31.27-26.67,14-6.67,31.84-10.06,53.06-10.06,14.18,0,28.34,1.78,42.1,5.33,14.01,3.6,30.72,11.65,40.72,18.09l-15.01,39.1c-10.36-6.07-25.57-13.43-36.26-16.55-10.8-3.16-21.52-4.75-31.88-4.75s-19.08,1.32-25.8,3.93c-6.85,2.66-11.86,6.21-14.88,10.54-3.06,4.35-4.61,9.47-4.61,15.17,0,6.84,2.66,12.43,7.92,16.59,4.95,3.95,11.54,7.15,19.56,9.5,7.87,2.32,16.66,4.66,26.08,6.95,9.38,2.28,18.92,4.96,28.34,7.93,9.28,2.95,17.89,6.95,25.57,11.94,7.58,4.9,13.82,11.46,18.55,19.46,4.68,7.97,7.07,18.24,7.07,30.52"/>
      <path class="cls-1" d="m335.1,165.64c-14.43-13.03-35.05-19.64-61.28-19.64-13.72,0-27.43,1.97-40.72,5.82-12.66,3.68-23.69,8.85-32.82,15.4l16.6,34.24c6.13-4.77,13.49-8.66,21.88-11.55,9.19-3.16,18.66-4.77,28.19-4.77,14.14,0,24.83,3.43,31.79,10.21,7.02,6.8,10.58,16.38,10.58,28.43v1.92h-42.37c-17.56,0-31.95,2.34-42.82,6.95-10.72,4.58-18.64,10.92-23.53,18.85-4.9,7.95-7.38,17.39-7.38,28.05s2.53,19.54,7.54,27.72c5.03,8.2,12.37,14.79,21.82,19.58,9.53,4.83,21.16,7.26,34.54,7.26,15.08,0,27.54-3.04,37.02-9.08,6.29-4,11.36-9.39,15.06-16.02l3.36-5.99v28.31h44.14v-104.43c0-27.7-7.27-48.3-21.61-61.27m-25.79,109.08l-.13.32c-3.2,8.7-8.41,15.37-15.48,19.85-7.02,4.43-15.03,6.67-23.82,6.67-9.31,0-16.76-2.17-22.17-6.44-5.59-4.41-8.43-10.46-8.43-17.99,0-6.78,2.48-12.51,7.32-17.03,4.85-4.52,13.33-6.73,25.88-6.73h36.82v21.34Z"/>
      <path class="cls-1" d="m544.94,228.11v104.79h-47.4v-96.48c0-15.42-3.29-27.05-9.8-34.54-6.55-7.55-15.84-11.36-27.65-11.36-8.34,0-15.93,1.88-22.59,5.58-6.75,3.75-12.06,9.58-15.8,17.28-3.73,7.64-5.61,17.49-5.61,29.29v90.23h-47.39v-182.55h45.1v25.29l3.17-3.73c4.94-5.82,10.81-10.71,17.49-14.5,11.46-6.51,24.7-9.83,39.37-9.83,6.8,0,13.29.73,19.4,2.17,6.13,1.46,11.88,3.6,17.23,6.48,10.63,5.69,19.11,14.5,25.23,26.23,6.15,11.78,9.26,27.17,9.26,45.67"/>
      <path class="cls-1" d="m703,150.52v27.26l-3.24-4.35c-5.12-6.9-11.3-12.39-18.39-16.38-11.03-6.17-23.94-9.31-38.39-9.31-15.98,0-30.61,3.66-43.47,10.88-12.86,7.18-23.29,17.51-31.03,30.67-7.74,13.12-11.66,28.81-11.66,46.61s3.92,33.14,11.66,46.28c7.76,13.16,18.19,23.54,31.03,30.86,12.86,7.32,27.49,11.02,43.47,11.02,14.45,0,27.36-3.18,38.37-9.47,5.93-3.37,11.27-7.85,15.86-13.33l3.17-3.73v13.22c0,17.3-4.3,30.59-12.8,39.46-8.5,8.87-22.17,13.37-40.67,13.37-11.25,0-22.82-1.95-34.39-5.81-10.76-3.58-19.91-8.39-27.2-14.33l-18.5,35.38c9.82,7.84,22.1,13.85,36.56,17.87,15.15,4.21,31.1,6.36,47.45,6.36,31.21,0,55.44-8.12,72.02-24.1,16.55-15.96,24.92-41.24,24.92-75.16v-153.3h-44.77Zm-8.12,110.29c-2.04,3.6-4.49,6.82-7.34,9.62-2.86,2.81-6.1,5.21-9.73,7.2-7.2,3.93-15.52,5.94-24.7,5.94s-17.5-2.01-24.7-5.94c-7.23-3.95-13.04-9.6-17.22-16.8-4.19-7.2-6.33-15.58-6.33-24.92s2.13-18.01,6.33-25.1c4.2-7.07,9.98-12.66,17.22-16.61,7.2-3.95,15.52-5.94,24.7-5.94s17.5,1.99,24.7,5.94c7.25,3.95,12.98,9.56,17.07,16.63,4.09,7.11,6.15,15.54,6.15,25.08s-2.06,17.7-6.15,24.91"/>
      <path class="cls-1" d="m933.11,150.43v182.57h-44.77v-25.23l-3.2,4c-4.67,5.84-10.27,10.67-16.65,14.35-11.12,6.4-23.42,9.64-36.58,9.64-14.25,0-27.14-2.95-38.26-8.79-11.07-5.81-19.76-14.81-25.88-26.74-6.15-12.01-9.26-27.61-9.26-46.38v-103.41h47.39v95.44c0,15.9,3.29,27.8,9.78,35.4,6.55,7.66,15.86,11.55,27.67,11.55,8.14,0,15.46-1.9,21.81-5.61,6.4-3.75,11.5-9.64,15.14-17.45,3.6-7.74,5.42-17.53,5.42-29.08v-90.25h47.4Z"/>
      <path class="cls-1" d="m1079.28,269.55l36.49,21.09c-6.36,13.79-16.09,24.68-28.93,32.34-13.38,7.99-29.37,12.05-47.5,12.05s-35.37-4.08-49.85-12.09c-14.47-7.99-25.95-19.24-34.12-33.43-8.17-14.18-12.31-30.5-12.31-48.54s4.14-34.64,12.31-48.7c8.17-14.08,19.66-25.27,34.12-33.28,14.5-8.01,31.27-12.07,49.85-12.07s34.11,4.04,47.5,12.05c12.84,7.66,22.57,18.64,28.95,32.66l-36.53,20.79c-4.58-8.24-10.27-14.45-16.96-18.51-7.11-4.29-14.95-6.47-23.29-6.47-9.01,0-17.21,2.17-24.43,6.47-7.25,4.31-13.04,10.5-17.21,18.41-4.16,7.85-6.28,17.51-6.28,28.64s2.12,20.79,6.28,28.66c4.18,7.89,9.96,14.08,17.21,18.39,7.22,4.31,15.43,6.49,24.43,6.49,8.34,0,16.17-2.12,23.27-6.3,6.71-3.95,12.42-10.21,17-18.66"/>
      <path class="cls-1" d="m1304.63,228.32v104.79h-47.4v-96.48c0-15.44-3.29-27.07-9.8-34.56-6.53-7.55-15.84-11.36-27.65-11.36-8.32,0-15.93,1.88-22.59,5.59-6.75,3.75-12.06,9.56-15.8,17.26-3.73,7.64-5.61,17.49-5.61,29.29v90.25h-47.39V79.87h47.39v92.97l3.09-3.27c4.41-4.67,9.55-8.72,15.28-11.97,11.45-6.51,24.7-9.83,39.37-9.83,13.6,0,25.91,2.91,36.62,8.64,10.63,5.69,19.12,14.52,25.25,26.25,6.13,11.78,9.24,27.15,9.24,45.67"/>
      <path class="cls-1" d="m1485.17,194.26c-7.87-14.06-18.68-25-32.15-32.55-13.52-7.55-28.93-11.38-45.77-11.38s-33.36,4.06-47.2,12.07c-13.81,7.99-24.86,19.18-32.84,33.26-7.98,14.06-12.01,30.46-12.01,48.72s4.09,34.33,12.17,48.38c8.07,14.08,19.66,25.32,34.43,33.43,14.83,8.14,32.32,12.26,51.99,12.26,15.61,0,29.57-2.59,41.52-7.66,5.66-2.41,10.91-5.34,15.7-8.77,4.78-3.45,9.1-7.38,12.93-11.78l-24.79-28.47c-5.66,5.5-11.95,9.71-18.68,12.57-7.27,3.08-15.81,4.64-25.37,4.64-10.71,0-20.16-2.11-28.1-6.26-8.03-4.18-14.34-10.38-18.75-18.41-2.37-4.29-4.12-9.08-5.23-14.24l-.51-2.34h133.69c.16-1.8.32-3.7.49-5.69.22-2.64.32-4.98.32-6.93,0-19.65-4-36.74-11.85-50.83m-123.15,35.75l.32-2.2c.89-6.03,2.59-11.53,5.05-16.38,3.85-7.57,9.31-13.53,16.24-17.72,3.45-2.09,7.18-3.68,11.19-4.73,4-1.05,8.25-1.59,12.75-1.59,9,0,17.02,2.13,23.82,6.32,6.78,4.19,12.19,10.1,16.04,17.53,2.53,4.9,4.25,10.48,5.12,16.59l.31,2.18h-90.83Z"/>
    </g>
  </g>
</svg>